<?xml version="1.0" encoding="UTF-8"?>
<svg width="1502px" height="463px" viewBox="0 0 1502 463" version="1.1" xmlns="http://www.w3.org/2000/svg" xmlns:xlink="http://www.w3.org/1999/xlink">
    <!-- Generator: Sketch 58 (84663) - https://sketch.com -->
    <title>Formaggio_Primary@3x</title>
    <desc>Created with Sketch.</desc>
    <g id="Formaggio_Primary" stroke="none" stroke-width="1" fill="none" fill-rule="evenodd">
        <g id="Group-2" transform="translate(460.000000, 160.000000)" fill="#382E0B" fill-rule="nonzero">
            <path d="M76.6,16.2 L76.6,0 L-1.8189894e-12,0 L-1.8189894e-12,138 L19.4,138 L19.4,78.4 L73.2,78.4 L73.2,62.2 L19.4,62.2 L19.4,16.2 L76.6,16.2 Z M184,90.8 C184,61.4 162,41.2 133.8,41.2 C105.4,41.2 83.4,61.4 83.4,90.8 C83.4,120.4 105.4,140.2 133.8,140.2 C162,140.2 184,120.4 184,90.8 Z M164.6,90.2 C164.6,109 152.8,123.8 133.8,123.8 C114.6,123.8 102.8,109 102.8,90.2 C102.8,71.6 114.6,56.8 133.8,56.8 C152.8,56.8 164.6,71.6 164.6,90.2 Z M251.8,60.6 L253,42.8 L252.601222,42.6433889 C251.501561,42.2405827 248.16129,41.2 243,41.2 C232.8,41.2 224.2,46.8 219.6,57.6 L219,57.6 L219.2,43 L200,43 L200,138 L219.2,138 L219.2,90.6 C219.2,76.8 223.4,58.6 240.6,58.6 C245.8,58.6 249.2,59.8 251,60.6 L251.8,60.6 Z M402.6,138 L402.6,80.4 L402.591577,79.1541007 C402.317661,59.0560759 395.286869,41.2 370.4,41.2 C357,41.2 346.6,48 340.2,60 C335.8,47.6 326,41.2 312,41.2 C299.4,41.2 289,49.2 284.6,58 L284,58 L284.2,43 L265,43 L265,138 L284.2,138 L284.2,88.6 C284.2,71.6 291.8,57 307,57 C320.8,57 324.2,68.6 324.2,82.6 L324.2,138 L343.4,138 L343.4,88.6 C343.4,71.6 351,57 366.2,57 C381.6,57 383.6,71.6 383.6,82.6 L383.6,138 L402.6,138 Z M498,138 L498,82.8 C498,55.2 484.2,41.2 456.4,41.2 C440.6,41.2 427.8,46.8 420.8,50.8 L426.6,63.6 L427.265381,63.1968864 C431.19992,60.87832 442.228,55.4 455.2,55.4 C469,55.4 478.8,62.6 478.8,77 L478.8,80.8 L453.4,81.8 C431.4,82.8 416.2,92.2 416.2,110.8 C416.2,129.2 431.4,140.2 449,140.2 C466.4,140.2 475.4,130 479.2,126 L479.4,138 L498,138 Z M479,92.4 L479,112.8 L478.515468,113.50478 C474.694522,118.899683 466.67234,126.6 454.8,126.6 C442.2,126.6 435.2,119.2 435.2,110.2 C435.2,101.2 441.4,94.6 456.8,93.8 L479,92.4 Z M610.6,118 L610.6,43 L591.6,43 L591.8,58 L591.2,58 C585.6,49.2 574.6,41.2 558,41.2 C533.6,41.2 512.2,58.8 512.2,89 C512.2,119.2 533.6,136.8 558,136.8 C574,136.8 584.8,129.4 591.2,119.8 L591.6,119.8 L591.6,124.6 C591.6,147 582.6,161.6 558.4,161.6 C544.2,161.6 529.4,154 524.4,149.6 L515.4,163 L516.875806,164.051951 C521.996898,167.629224 537.074286,177.2 557.8,177.2 C580.673846,177.2 592.462675,168.18168 599.540009,159.796378 L600.2,159 C607.2,150.6 610.6,139 610.6,118 Z M592.2,89 C592.2,107 581.6,121.2 562,121.2 C542.6,121.2 531.8,107 531.8,89 C531.8,71 542.6,56.6 562,56.6 C581.6,56.6 592.2,71 592.2,89 Z M725.2,118 L725.2,43 L706.2,43 L706.4,58 L705.8,58 C700.2,49.2 689.2,41.2 672.6,41.2 C648.2,41.2 626.8,58.8 626.8,89 C626.8,119.2 648.2,136.8 672.6,136.8 C688.6,136.8 699.4,129.4 705.8,119.8 L706.2,119.8 L706.2,124.6 C706.2,147 697.2,161.6 673,161.6 C658.8,161.6 644,154 639,149.6 L630,163 L631.475806,164.051951 C636.596898,167.629224 651.674286,177.2 672.4,177.2 C695.273846,177.2 707.062675,168.18168 714.140009,159.796378 L714.8,159 C721.8,150.6 725.2,139 725.2,118 Z M706.8,89 C706.8,107 696.2,121.2 676.6,121.2 C657.2,121.2 646.4,107 646.4,89 C646.4,71 657.2,56.6 676.6,56.6 C696.2,56.6 706.8,71 706.8,89 Z M770.6,11.8 C770.6,5 765.4,-3.69482223e-13 758.2,-3.69482223e-13 C750.8,-3.69482223e-13 745.6,5 745.6,11.8 C745.6,18.6 750.8,23.6 758.2,23.6 C765.4,23.6 770.6,18.6 770.6,11.8 Z M767.8,138 L767.8,43 L748.6,43 L748.6,138 L767.8,138 Z M885.2,90.8 C885.2,61.4 863.2,41.2 835,41.2 C806.6,41.2 784.6,61.4 784.6,90.8 C784.6,120.4 806.6,140.2 835,140.2 C863.2,140.2 885.2,120.4 885.2,90.8 Z M865.8,90.2 C865.8,109 854,123.8 835,123.8 C815.8,123.8 804,109 804,90.2 C804,71.6 815.8,56.8 835,56.8 C854,56.8 865.8,71.6 865.8,90.2 Z" id="Formaggio"></path>
        </g>
        <g id="Group-Copy" transform="translate(158.000000, 132.000000)">
            <path d="M6.00015396,166.000126 L40.694439,166.000126 L46.2882543,151.530242 L61.6034483,143.806452 L71.8300781,146.985887 L81.9092134,154.903289 L82.5517241,164.709677 L214.55245,164.709677 L215.694438,131.627016 L211.964723,101.692127 L118.287802,44.2016988 L105.827586,47.8064516 L82.5517241,40.4858871 L77.4072313,23.4329646 L52.5517241,6 L34.244208,29.7419355 L13.5,67.6451613 C8.50010264,83.2755376 6.00015396,92 6.00015396,93.8185484 C6.00015396,96.546371 6.00015396,127.810484 6.00015396,131.627016 C6.00015396,134.171371 6.00015396,145.629074 6.00015396,166.000126 Z" id="Path-16" fill="#FFD362"></path>
            <path d="M11.1724138,108.999068 C11.7826593,72.119721 27.050742,37.7594124 53.0727429,12.6415409 L72.2480013,26.119798 C73.0491576,41.081847 85.4611238,52.9677419 100.655172,52.9677419 C105.010648,52.9677419 109.228952,51.9861122 113.050142,50.1377402 L208.205098,105.47953 L208.271644,105.728256 L208.340699,106.006548 C208.352371,106.055324 208.364113,106.10528 208.375907,106.15639 L208.456084,106.517807 C208.77524,108.012593 209.075305,110.093915 209.339576,112.658854 C209.88088,117.912578 210.251717,124.981737 210.4213,132.728092 L210.44544,133.907916 L210.466842,135.124795 C210.565018,141.206242 210.530896,147.217329 210.374642,151.98399 L210.359107,152.442271 C210.266634,155.081693 210.138616,157.204659 209.988655,158.614025 L209.948018,158.973327 C209.898997,159.380586 209.853428,159.667348 209.823266,159.794306 C209.855212,159.659838 209.912334,159.4834 210.0636,159.178068 C210.796988,157.697711 212.037109,156.46875 214.533324,156.46875 L214.533324,166.791331 C217.143714,166.791331 218.49529,165.451918 219.337167,163.752576 C219.595362,163.231403 219.75644,162.733867 219.889112,162.175428 C220.04836,161.50512 220.169702,160.699725 220.275662,159.703892 L220.318192,159.284745 L220.379166,158.610158 C220.51089,157.05076 220.617399,155.092614 220.697619,152.802927 L220.729067,151.844295 L220.759038,150.790875 C220.890442,145.7991 220.903188,139.770872 220.789178,133.75269 L220.76366,132.502651 L220.737201,131.363734 C220.555979,123.992049 220.1949,117.245153 219.669892,111.994592 L219.630161,111.603146 C219.303915,108.436709 218.918212,105.838998 218.456919,103.840032 C218.180178,102.640805 217.869607,101.620532 217.490995,100.74323 C216.844406,99.244979 216.012839,98.0661122 214.55456,97.224412 L115.720006,39.7425473 C114.049355,38.7709028 111.975076,38.8102827 110.342673,39.8446353 C107.469212,41.6653704 104.141241,42.6451613 100.655172,42.6451613 C90.656914,42.6451613 82.5517241,34.5574019 82.5517241,24.5806452 C82.5517241,24.2805713 82.5590117,23.9815813 82.5735322,23.6838184 C82.6596332,21.9181988 81.8342029,20.231428 80.3859275,19.2134377 L55.5843825,1.78047309 C53.6014287,0.386658208 50.9141882,0.555004471 49.121505,2.18534986 C19.4684883,29.1531154 1.85192735,66.9355917 0.853431996,107.638859 L0.827586207,108.956849 L0.827586207,164.709677 L11.1724138,164.709677 L11.1724138,108.999068 Z" id="Path" fill="#382E0B" fill-rule="nonzero"></path>
            <path d="M158.16726,132.58304 L159.145709,133.139701 L160.293781,133.789451 C163.367292,135.524057 166.547821,137.280577 170.102464,139.212907 L173.218225,140.900246 L185.200454,147.343158 L187.69045,148.689188 C188.489674,149.12229 189.263894,149.54297 190.030427,149.960682 L190.947685,150.461117 C196.907139,153.716295 202.411085,156.802035 208.146419,160.123274 L209.379192,160.838835 L87.4380625,160.838835 C85.5641978,148.279531 74.7113617,138.645161 61.6034483,138.645161 C48.4955349,138.645161 37.6426987,148.279531 35.7688341,160.838835 L11.2668954,160.838835 C12.3454422,131.544204 22.6851208,103.845564 40.5807891,81.1582614 C42.3476091,78.9183685 41.9601945,75.6733661 39.7154742,73.9103456 C37.4707539,72.1473252 34.218758,72.5339067 32.4519379,74.7737996 C12.5895871,99.9543713 1.3781521,130.895262 0.847391503,163.560631 L0.827736537,165.958652 C0.804822063,168.825272 3.12726366,171.161416 6.00015396,171.161416 L40.694439,171.161416 C43.6266754,171.161416 45.9620546,168.734966 45.8640749,165.829625 L45.8572863,165.686362 C45.8375183,165.362486 45.8275862,165.036844 45.8275862,164.709677 C45.8275862,156.015647 52.8906802,148.967742 61.6034483,148.967742 C70.3162163,148.967742 77.3793103,156.015647 77.3793103,164.709677 C77.3793103,164.927789 77.3748961,165.145222 77.3660961,165.361906 L77.3496103,165.686362 C77.1684325,168.654759 79.5321517,171.161416 82.5124575,171.161416 L209.379192,171.161416 C213.059819,171.161416 216.463241,169.209861 218.316671,166.036819 C221.193695,161.111401 219.524538,154.791288 214.588505,151.920451 C209.155124,148.760384 203.96763,145.831867 198.474119,142.809281 L195.102527,140.963093 C193.067428,139.853773 190.987181,138.728394 188.543298,137.413041 L179.767224,132.697897 L177.369128,131.404454 L174.918885,130.076147 L172.415365,128.709699 C167.729885,126.142223 163.651059,123.84658 159.442359,121.398829 C157.051793,120.008491 153.997864,120.74427 152.500782,123.045365 L152.420681,123.172428 C149.898735,127.302577 145.416039,129.870968 140.482759,129.870968 C136.992691,129.870968 133.715187,128.595429 131.169439,126.319967 C129.041626,124.418067 125.771575,124.597496 123.865576,126.720734 C121.959577,128.843971 122.139393,132.10699 124.267206,134.00889 C128.692395,137.964249 134.420591,140.193548 140.482759,140.193548 C147.311679,140.193548 153.654195,137.357937 158.16726,132.58304 Z" id="Shape" fill="#382E0B" fill-rule="nonzero"></path>
            <path d="M47.4524041,5.99207278 L47.3793102,53.4759437 C47.3749289,56.3264423 49.6871379,58.6407771 52.5437798,58.6451614 C55.4004217,58.6495333 57.7197443,56.3422968 57.7241318,53.4917982 L57.7972258,6.00792722 C57.801607,3.15742865 55.489398,0.843093848 52.6327561,0.838709545 C49.7761142,0.834337682 47.4567917,3.14157421 47.4524041,5.99207278 Z" id="Path-15" fill="#382E0B" fill-rule="nonzero"></path>
            <path d="M118.834399,98.1325124 L111.794421,93.9072784 L74.0842867,71.1617939 C71.6957213,69.7295407 70.2765797,68.8878231 69.2623019,68.2979166 C66.7942794,66.8625085 63.6274158,67.6953053 62.1889142,70.1580203 C60.7504126,72.6207352 61.5850042,75.7807883 64.0530268,77.2161964 L66.3237134,78.5558018 C67.588745,79.3088163 69.2818666,80.3236917 71.6397367,81.7424306 L108.980459,104.267975 L114.143427,107.360552 C115.431053,108.127553 116.397686,108.698135 117.126694,109.122128 C119.335253,110.406631 122.144807,109.886084 123.746329,107.916953 L123.83913,107.799453 C126.129414,104.812777 129.661863,103.032258 133.5,103.032258 C134.31838,103.032258 135.123396,103.11223 135.908413,103.269303 L136.201843,103.331813 C138.987892,103.96161 141.758082,102.218479 142.389236,99.4384223 C143.02039,96.6583653 141.273503,93.8941326 138.487454,93.2643358 C136.861321,92.8967422 135.190991,92.7096774 133.5,92.7096774 C128.013299,92.7096774 122.848797,94.6862688 118.834399,98.1325124 Z" id="Shape" fill="#382E0B" fill-rule="nonzero"></path>
        </g>
    </g>
</svg>